<svg width="428" height="54" viewBox="0 0 428 54" fill="none" xmlns="http://www.w3.org/2000/svg">
<path d="M50.4886 48.032H3.50085C1.57114 48.032 0 46.4608 0 44.5205V9.4696C0 7.53989 1.57114 5.96875 3.50085 5.96875H50.478C52.4182 5.96875 53.9894 7.53989 53.9894 9.4696V44.5205C53.9895 46.4608 52.4183 48.032 50.4886 48.032Z" fill="#FFC738"/>
<path d="M50.4886 5.96875H26.9947V48.032H50.4885C52.4288 48.032 53.9894 46.4609 53.9894 44.5312V9.46969C53.9895 7.53998 52.4183 5.96875 50.4886 5.96875Z" fill="#FFB42E"/>
<path d="M53.9895 27.7228V26.2782H35.1248V19.8986L39.9965 15.0269H53.9895C53.9895 14.5312 53.9367 14.0462 53.8524 13.5822H39.6907C39.5009 13.5822 39.3111 13.6666 39.1845 13.8037L34.1019 18.8757H27.7224V5.96875H26.2777V18.865H19.9719L14.8998 13.7929C14.7628 13.6559 14.573 13.5715 14.3831 13.5715H0.147588C0.063214 14.0461 0.0105357 14.5311 0.0105357 15.0161H14.0879L18.8647 19.793V26.2569H0V27.7015H18.8647V34.1655L14.0879 38.9739H0.0105357C0.0105357 39.4695 0.0633026 39.9546 0.147588 40.4185H14.3937C14.5835 40.4185 14.7733 40.3342 14.9104 40.1971L19.9824 35.125H26.2883V48.0213H27.7329V35.1252H34.1125L39.1951 40.1973C39.3216 40.3343 39.5114 40.4187 39.7012 40.4187H53.8629C53.9473 39.9442 54 39.4592 54 38.9741H39.986L35.1142 34.1024V27.7228H53.9895ZM33.6801 33.6806H20.3093V20.3097H33.6696V33.6806H33.6801Z" fill="#C66D4E"/>
<path d="M53.9895 27.7228V26.2782H35.1248V19.8986L39.9965 15.0269H53.9895C53.9895 14.5312 53.9367 14.0462 53.8524 13.5822H39.6907C39.5009 13.5822 39.3111 13.6666 39.1846 13.8037L34.1019 18.8757H27.7224V5.96875H26.9948V20.3097H33.6802V33.6805H26.9948V48.0215H27.7224V35.1252H34.1019L39.1846 40.1973C39.3111 40.3343 39.5009 40.4187 39.6907 40.4187H53.8524C53.9368 39.9442 53.9895 39.4697 53.9895 38.9741H39.986L35.1142 34.1024V27.7228H53.9895Z" fill="#AF5A35"/>
<path d="M404.784 53.5366C404.166 52.9187 404.166 51.9171 404.784 51.2993C418.183 37.9006 418.183 16.0994 404.784 2.70073C404.166 2.0829 404.166 1.08126 404.784 0.463423C405.402 -0.154413 406.404 -0.154413 407.021 0.463423C410.603 4.04535 413.377 8.22255 415.265 12.8789C417.089 17.3755 418.013 22.1266 418.013 27.0001C418.013 31.8735 417.089 36.6245 415.265 41.1213C413.377 45.7776 410.603 49.9548 407.021 53.5368C406.404 54.1544 405.402 54.1544 404.784 53.5366Z" fill="white"/>
<path d="M398.006 46.7585C397.388 46.1407 397.388 45.139 398.006 44.5212C407.667 34.86 407.667 19.14 398.006 9.47888C397.388 8.86105 397.388 7.85941 398.006 7.24158C398.624 6.62374 399.626 6.62374 400.243 7.24158C405.521 12.5192 408.428 19.5363 408.428 27.0001C408.428 34.4639 405.521 41.4809 400.243 46.7586C399.626 47.3762 398.624 47.3762 398.006 46.7585Z" fill="white"/>
<path d="M391.228 39.9808C390.61 39.3629 390.61 38.3613 391.228 37.7435C397.152 31.8197 397.152 22.1811 391.228 16.2574C390.61 15.6395 390.61 14.6379 391.228 14.0201C391.846 13.4022 392.848 13.4022 393.465 14.0201C400.623 21.1775 400.623 32.8233 393.465 39.9808C392.848 40.5986 391.846 40.5986 391.228 39.9808Z" fill="white"/>
<path d="M384.45 33.2019C383.832 32.5841 383.832 31.5824 384.45 30.9646C386.636 28.7783 386.636 25.221 384.45 23.0347C383.832 22.4169 383.832 21.4152 384.45 20.7974C385.068 20.1796 386.069 20.1796 386.687 20.7974C390.107 24.2173 390.107 29.782 386.687 33.2019C386.069 33.8197 385.068 33.8197 384.45 33.2019Z" fill="white"/>
</svg>
