<svg width="39" height="43" viewBox="0 0 39 43" fill="none" xmlns="http://www.w3.org/2000/svg">
<path d="M31.8463 5.49875C31.6763 5.49875 31.5063 5.45625 31.3575 5.37125C27.2775 3.2675 23.75 2.375 19.5213 2.375C15.3138 2.375 11.3188 3.37375 7.685 5.37125C7.175 5.6475 6.5375 5.45625 6.24 4.94625C5.96375 4.43625 6.155 3.7775 6.665 3.50125C10.6175 1.355 14.9525 0.25 19.5213 0.25C24.0475 0.25 28 1.24875 32.335 3.48C32.8663 3.75625 33.0575 4.39375 32.7812 4.90375C32.59 5.28625 32.2288 5.49875 31.8463 5.49875ZM1.4375 16.655C1.225 16.655 1.0125 16.5912 0.821249 16.4638C0.332499 16.1238 0.226248 15.465 0.566248 14.9763C2.67 12.0013 5.3475 9.66375 8.535 8.0275C15.2075 4.585 23.75 4.56375 30.4438 8.00625C33.6313 9.6425 36.3088 11.9587 38.4125 14.9125C38.7525 15.38 38.6463 16.06 38.1575 16.4C37.6688 16.74 37.01 16.6337 36.67 16.145C34.7575 13.4675 32.335 11.3637 29.4663 9.8975C23.3675 6.77375 15.5688 6.77375 9.49125 9.91875C6.60125 11.4062 4.17875 13.5313 2.26625 16.2088C2.09625 16.5063 1.7775 16.655 1.4375 16.655ZM14.7188 42.3038C14.4425 42.3038 14.1663 42.1975 13.975 41.985C12.1262 40.1362 11.1275 38.9463 9.70375 36.375C8.2375 33.7612 7.4725 30.5737 7.4725 27.1525C7.4725 20.8412 12.87 15.6988 19.5 15.6988C26.13 15.6988 31.5275 20.8412 31.5275 27.1525C31.5275 27.7475 31.06 28.215 30.465 28.215C29.87 28.215 29.4025 27.7475 29.4025 27.1525C29.4025 22.01 24.9613 17.8238 19.5 17.8238C14.0387 17.8238 9.5975 22.01 9.5975 27.1525C9.5975 30.2125 10.2775 33.0387 11.5738 35.3338C12.9338 37.7775 13.8688 38.8188 15.505 40.4762C15.9088 40.9012 15.9088 41.56 15.505 41.985C15.2713 42.1975 14.995 42.3038 14.7188 42.3038ZM29.955 38.3725C27.4263 38.3725 25.195 37.735 23.3675 36.4812C20.2013 34.335 18.31 30.85 18.31 27.1525C18.31 26.5575 18.7775 26.09 19.3725 26.09C19.9675 26.09 20.435 26.5575 20.435 27.1525C20.435 30.1488 21.965 32.975 24.5575 34.7175C26.0663 35.7375 27.83 36.2262 29.955 36.2262C30.465 36.2262 31.315 36.1625 32.165 36.0137C32.7388 35.9075 33.2913 36.29 33.3975 36.885C33.5038 37.4587 33.1213 38.0112 32.5262 38.1175C31.315 38.3512 30.2525 38.3725 29.955 38.3725ZM25.6838 42.75C25.5988 42.75 25.4925 42.7287 25.4075 42.7075C22.0287 41.7725 19.8188 40.5187 17.5025 38.245C14.5275 35.2912 12.8913 31.36 12.8913 27.1525C12.8913 23.71 15.8238 20.905 19.4363 20.905C23.0488 20.905 25.9813 23.71 25.9813 27.1525C25.9813 29.4263 27.9575 31.275 30.4012 31.275C32.845 31.275 34.8213 29.4263 34.8213 27.1525C34.8213 19.1413 27.915 12.6388 19.415 12.6388C13.38 12.6388 7.855 15.9962 5.36875 21.2025C4.54 22.9237 4.115 24.9425 4.115 27.1525C4.115 28.81 4.26375 31.4238 5.53875 34.8237C5.75125 35.3763 5.475 35.9925 4.9225 36.1838C4.37 36.3962 3.75375 36.0988 3.5625 35.5675C2.52125 32.7838 2.01125 30.0212 2.01125 27.1525C2.01125 24.6025 2.5 22.2863 3.45625 20.2675C6.2825 14.3387 12.5512 10.4925 19.415 10.4925C29.0838 10.4925 36.9463 17.9512 36.9463 27.1312C36.9463 30.5737 34.0138 33.3787 30.4012 33.3787C26.7887 33.3787 23.8563 30.5737 23.8563 27.1312C23.8563 24.8575 21.88 23.0088 19.4363 23.0088C16.9925 23.0088 15.0163 24.8575 15.0163 27.1312C15.0163 30.765 16.4188 34.165 18.99 36.715C21.0088 38.7125 22.9425 39.8175 25.9388 40.6463C26.5125 40.795 26.8313 41.39 26.6825 41.9425C26.5763 42.4313 26.13 42.75 25.6838 42.75Z" fill="white"/>
</svg>
