<svg width="54" height="54" viewBox="0 0 54 54" fill="none" xmlns="http://www.w3.org/2000/svg">
<path d="M21.6218 18.9648L18.8774 35.0698H23.2666L26.0132 18.9648H21.6218Z" fill="white"/>
<path d="M15.1973 18.9829L10.8985 29.966L10.4401 28.3076C9.59233 26.3095 7.18551 23.4398 4.35986 21.6313L8.29071 35.0619L12.935 35.054L19.8473 18.9795L15.1973 18.9829Z" fill="white"/>
<path d="M8.77384 20.1355C8.51871 19.1545 7.77928 18.8621 6.86148 18.8271H0.0564452L0 19.1478C5.29569 20.4325 8.79981 23.5279 10.2538 27.2499L8.77384 20.1355Z" fill="white"/>
<path d="M34.9089 22.0516C36.3449 22.0291 37.3858 22.3429 38.1941 22.668L38.5903 22.8543L39.1841 19.3637C38.3149 19.0375 36.9523 18.6875 35.2521 18.6875C30.9149 18.6875 27.8578 20.8719 27.8341 24.0024C27.8059 26.3155 30.0118 27.607 31.678 28.378C33.3883 29.1682 33.9618 29.6706 33.9539 30.3762C33.9403 31.4543 32.5902 31.9487 31.3292 31.9487C29.5715 31.9487 28.6379 31.706 27.1963 31.1054L26.6307 30.8481L26.0132 34.4526C27.0405 34.9031 28.9359 35.2903 30.9036 35.3106C35.5174 35.3106 38.5158 33.1521 38.5474 29.8072C38.5666 27.9773 37.3959 26.5808 34.8593 25.435C33.324 24.6876 32.3847 24.1909 32.3938 23.4368C32.3938 22.7674 33.1908 22.0516 34.9089 22.0516Z" fill="white"/>
<path d="M50.4484 18.9825H47.0572C46.0039 18.9825 45.2205 19.2693 44.7576 20.3191L38.2405 35.0784H42.8498C42.8498 35.0784 43.6016 33.0938 43.7721 32.6592C44.2767 32.6592 48.7551 32.666 49.3929 32.666C49.5239 33.2282 49.928 35.0784 49.928 35.0784H54L50.4484 18.9825ZM45.0354 29.3628C45.3966 28.4382 46.784 24.8618 46.784 24.8618C46.7603 24.9059 47.1419 23.9305 47.3688 23.3243L47.6646 24.7128C47.6646 24.7128 48.5056 28.5579 48.6817 29.3628H45.0354Z" fill="white"/>
</svg>
